<svg width="540" height="360" viewBox="0 0 540 360" fill="none" xmlns="http://www.w3.org/2000/svg">
<g clip-path="url(#clip0_2713_7130)">
<path d="M108.479 94.3198C108.479 94.3198 144.616 62.7003 189.033 77.7569C233.451 92.8136 268.082 161.322 310.994 163.581C353.906 165.84 393.807 142.501 427.684 162.828C461.562 183.155 467.585 271.237 402.841 280.271C338.096 289.305 301.96 256.933 274.105 258.439C246.249 259.944 178.494 293.822 125.042 278.766C71.5896 263.709 23.4079 159.817 108.479 94.3198Z" fill="#E8F4FF"/>
<g opacity="0.46">
<path d="M349.919 99.4881H195.449C193.825 99.4881 192.64 97.9538 193.049 96.3827L207.469 40.9787C207.753 39.8858 208.74 39.1226 209.869 39.1226H364.339C365.963 39.1226 367.149 40.6569 366.74 42.2279L352.32 97.6319C352.035 98.7249 351.049 99.4881 349.919 99.4881Z" fill="#BFD9FF"/>
<path d="M216.635 50.9751H270.384" stroke="#A9C2FF" stroke-width="3.4455" stroke-miterlimit="10" stroke-linecap="round" stroke-linejoin="round"/>
<path d="M212.5 75.7827H266.25" stroke="#A9C2FF" stroke-width="3.4455" stroke-miterlimit="10" stroke-linecap="round" stroke-linejoin="round"/>
<path d="M235.102 66.4111H288.853" stroke="#A9C2FF" stroke-width="3.4455" stroke-miterlimit="10" stroke-linecap="round" stroke-linejoin="round"/>
<path d="M215.256 59.2444H231.381" stroke="#A9C2FF" stroke-width="3.4455" stroke-miterlimit="10" stroke-linecap="round" stroke-linejoin="round"/>
<path d="M213.052 66.4111H229.177" stroke="#A9C2FF" stroke-width="3.4455" stroke-miterlimit="10" stroke-linecap="round" stroke-linejoin="round"/>
<path d="M278.929 50.9751H298.087" stroke="#A9C2FF" stroke-width="3.4455" stroke-miterlimit="10" stroke-linecap="round" stroke-linejoin="round"/>
<path d="M288.317 87.4207H259.71C259.566 87.4207 259.461 87.2846 259.497 87.145L260.777 82.2259C260.802 82.1287 260.89 82.061 260.99 82.061H289.597C289.741 82.061 289.846 82.1971 289.81 82.3368L288.53 87.2558C288.505 87.353 288.417 87.4207 288.317 87.4207Z" stroke="#84AEE5" stroke-width="1.1485" stroke-miterlimit="10"/>
<path d="M252.759 87.4207H224.152C224.008 87.4207 223.903 87.2846 223.939 87.145L225.219 82.2259C225.244 82.1287 225.332 82.061 225.432 82.061H254.039C254.183 82.061 254.288 82.1971 254.252 82.3368L252.972 87.2558C252.947 87.353 252.86 87.4207 252.759 87.4207Z" stroke="#84AEE5" stroke-width="1.1485" stroke-miterlimit="10"/>
<path d="M338.596 80.2886C337.13 78.3352 331.181 76.9147 329.537 74.962C328.697 73.9641 328.697 72.1101 328.897 70.534C329.483 70.1611 329.969 69.7867 330.258 69.4389C330.752 68.7175 331.309 67.7088 331.867 66.6021C332.035 66.767 332.261 66.8959 332.551 66.8872C333.332 66.8642 336.305 62.8171 335.539 61.8789C335.1 61.3425 334.392 61.8076 333.866 62.3044C334.653 60.5023 335.207 59.1206 335.207 59.1206H335.177C335.251 58.8931 335.32 58.6648 335.378 58.433C336.557 53.7012 333.679 49.8657 328.947 49.8657C324.216 49.8657 319.424 53.7012 318.244 58.433C318.187 58.6648 318.141 58.8938 318.102 59.1206H318.072C318.072 59.1206 317.937 60.5023 317.825 62.3044C317.547 61.8076 317.071 61.3425 316.365 61.8789C315.13 62.8171 316.086 66.8642 316.855 66.8872C317.142 66.8959 317.431 66.767 317.682 66.6021C317.688 67.7088 317.742 68.7175 317.876 69.4389C318.018 69.8637 318.433 70.3288 318.972 70.7832C318.383 72.3016 317.487 74.0167 316.22 74.962C313.602 76.9154 306.945 78.3352 304.505 80.2886C302.31 82.0454 300.352 87.1761 299.98 88.1899H339.18C339.314 87.1761 339.915 82.0454 338.596 80.2886Z" fill="#8DBCF8"/>
</g>
<path d="M323.044 143.591H168.574C166.951 143.591 165.765 142.057 166.173 140.486L180.593 85.0817C180.878 83.9888 181.865 83.2256 182.994 83.2256H337.464C339.088 83.2256 340.273 84.7599 339.865 86.3309L325.445 141.735C325.161 142.828 324.173 143.591 323.044 143.591Z" stroke="#7094D8" stroke-width="1.1485" stroke-miterlimit="10"/>
<path d="M320.15 139.456H165.68C164.056 139.456 162.87 137.922 163.279 136.351L177.7 80.9467C177.984 79.8538 178.971 79.0906 180.1 79.0906H334.57C336.194 79.0906 337.38 80.6249 336.971 82.1959L322.551 137.6C322.266 138.694 321.279 139.456 320.15 139.456Z" fill="#A5C5FF"/>
<path d="M214.154 139.456H291.472" stroke="#7094D8" stroke-width="1.1485" stroke-miterlimit="10"/>
<path d="M192.654 79.0906H257.981" stroke="#7094D8" stroke-width="1.1485" stroke-miterlimit="10"/>
<path d="M307.679 131.187H272.948C271.35 131.187 270.377 129.891 270.776 128.292L279.538 93.1478C279.937 91.5494 281.556 90.2534 283.154 90.2534H317.885C319.483 90.2534 320.456 91.5494 320.057 93.1478L311.295 128.292C310.897 129.891 309.277 131.187 307.679 131.187Z" fill="#B7DEFF"/>
<path d="M290.634 131.324L293.674 119.134L288.69 117.024C288.69 117.024 279.404 120.424 278.613 121.244C277.95 121.932 274.616 129.043 273.555 131.324H290.634Z" fill="#023F61"/>
<path d="M307.831 131.324C307.908 129.043 308.119 121.932 307.799 121.244C307.418 120.424 299.826 117.024 299.826 117.024L293.791 119.134L290.752 131.324H307.831Z" fill="#023F61"/>
<path d="M293.778 131.324L298.539 120.776L288.312 121.362L287.312 131.324H293.778Z" fill="#BEBECF"/>
<path d="M290.535 114.797L288.309 116.204L286.846 119.721L286.468 124.526L289.603 123.237L292.037 126.167L295.288 123.471L297.282 125.347L300.296 118.9L299.765 114.915L298.505 114.329L290.535 114.797Z" fill="#DEE0E8"/>
<path d="M291.22 105.57C291.22 105.57 290.472 103.87 288.938 105.001C287.404 106.132 289.199 110.498 290.31 109.184C291.421 107.87 291.22 105.57 291.22 105.57Z" fill="#FB8E74"/>
<path d="M302.149 105.479C302.149 105.479 303.606 103.678 304.706 104.687C305.805 105.697 302.19 110.312 301.596 109.077C301.002 107.842 302.149 105.479 302.149 105.479Z" fill="#FB8E74"/>
<path d="M298.732 118.202L300.301 109.88L291.221 110.667L289.217 118.482C289.217 118.482 290.804 122.182 292.505 123.823C292.505 123.823 297.785 119.261 298.732 118.202Z" fill="#FB8877"/>
<path d="M306.096 102.12C305.758 103.132 304.923 103.385 304.862 103.975C304.8 104.565 304.422 106.083 303.846 106.674C303.27 107.264 302.971 107.433 302.971 107.433C302.971 107.433 295.18 109.626 291.225 106.589C291.225 106.589 290.966 105.436 291.237 104.059C291.506 102.695 290.844 102.456 291.612 101.781C292.38 101.107 292.613 100.516 292.631 99.7573C292.649 98.9984 292.709 98.0703 293.498 97.3115C294.287 96.5526 294.995 96.8053 295.763 96.1307C295.763 96.1307 296.899 94.2234 298.4 94.0067C299.9 93.7899 303.064 92.9943 304.945 95.3084C306.827 97.6225 305.96 99.6479 306.503 100.371C307.047 101.095 306.096 102.12 306.096 102.12Z" fill="#713336"/>
<path d="M291.159 104.137C291.159 104.137 287.483 114.262 294.406 115.021C300.523 115.163 302.695 107.698 303.571 103.87C304.446 100.042 303.905 96.0335 299.009 96.1645C294.112 96.2955 291.697 101.869 291.159 104.137Z" fill="#FBA990"/>
<path d="M293.081 100.505C293.081 100.505 293.534 101.317 293.114 102.136C292.694 102.954 291.555 103.269 291.385 104.349C291.214 105.429 290.714 107.675 290.408 107.773C290.102 107.872 290.319 105.58 290.37 104.795C290.422 104.009 291.007 100.761 292.64 98.6983C294.273 96.6355 295.282 95.7643 298.189 95.2912C301.096 94.8182 303.3 96.0415 304.108 97.8156C304.918 99.5896 303.623 104.108 303.623 104.108C303.623 104.108 303.817 101.96 303.098 101.457C302.378 100.953 301.784 100.58 301.903 100.285C302.022 99.9907 299.602 101.058 297.183 100.281C294.764 99.5033 293.982 99.8568 293.58 100.106C293.177 100.354 293.081 100.505 293.081 100.505Z" fill="#713336"/>
<path d="M286.231 119.838C286.173 120.073 282.852 127.984 282.852 127.984L285.769 129.449L284.949 131.09" stroke="#022755" stroke-width="0.4884" stroke-miterlimit="10"/>
<path d="M300.59 119.838C300.532 120.073 299.907 127.984 299.907 127.984L296.259 129.449L296.26 131.09" stroke="#022755" stroke-width="0.4884" stroke-miterlimit="10"/>
<path d="M307.679 131.187H272.948C271.35 131.187 270.377 129.891 270.776 128.292L279.538 93.1478C279.937 91.5494 281.556 90.2534 283.154 90.2534H317.885C319.483 90.2534 320.456 91.5494 320.057 93.1478L311.295 128.292C310.897 129.891 309.277 131.187 307.679 131.187Z" stroke="white" stroke-width="1.1485" stroke-miterlimit="10"/>
<path d="M186.865 92.3213H240.615" stroke="#73A5FF" stroke-width="3.4455" stroke-miterlimit="10" stroke-linecap="round" stroke-linejoin="round"/>
<path d="M182.731 117.129H236.481" stroke="#73A5FF" stroke-width="3.4455" stroke-miterlimit="10" stroke-linecap="round" stroke-linejoin="round"/>
<path d="M205.333 107.757H259.083" stroke="#73A5FF" stroke-width="3.4455" stroke-miterlimit="10" stroke-linecap="round" stroke-linejoin="round"/>
<path d="M185.487 100.591H201.612" stroke="#73A5FF" stroke-width="3.4455" stroke-miterlimit="10" stroke-linecap="round" stroke-linejoin="round"/>
<path d="M183.282 107.757H199.407" stroke="#73A5FF" stroke-width="3.4455" stroke-miterlimit="10" stroke-linecap="round" stroke-linejoin="round"/>
<path d="M249.16 92.3213H268.317" stroke="#73A5FF" stroke-width="3.4455" stroke-miterlimit="10" stroke-linecap="round" stroke-linejoin="round"/>
<path d="M258.548 128.768H229.941C229.797 128.768 229.691 128.632 229.727 128.492L231.008 123.573C231.033 123.476 231.121 123.408 231.221 123.408H259.828C259.972 123.408 260.077 123.544 260.041 123.684L258.761 128.603C258.736 128.699 258.648 128.768 258.548 128.768Z" stroke="#7094D8" stroke-width="1.1485" stroke-miterlimit="10"/>
<path d="M222.99 128.768H194.383C194.239 128.768 194.134 128.632 194.17 128.492L195.45 123.573C195.475 123.476 195.563 123.408 195.663 123.408H224.27C224.414 123.408 224.519 123.544 224.483 123.684L223.203 128.603C223.178 128.699 223.09 128.768 222.99 128.768Z" stroke="#7094D8" stroke-width="1.1485" stroke-miterlimit="10"/>
<path d="M255.914 72.8884H289.404" stroke="#7094D8" stroke-width="1.1485" stroke-miterlimit="10"/>
<path d="M321.804 218.565H167.334C165.71 218.565 164.524 217.031 164.933 215.46L179.353 160.056C179.638 158.963 180.625 158.2 181.754 158.2H336.224C337.848 158.2 339.034 159.734 338.625 161.305L324.204 216.709C323.92 217.803 322.933 218.565 321.804 218.565Z" fill="#BFD9FF"/>
<path d="M188.519 170.052H242.269" stroke="#A9C2FF" stroke-width="3.4455" stroke-miterlimit="10" stroke-linecap="round" stroke-linejoin="round"/>
<path d="M184.385 194.86H238.135" stroke="#A9C2FF" stroke-width="3.4455" stroke-miterlimit="10" stroke-linecap="round" stroke-linejoin="round"/>
<path d="M206.987 185.488H260.737" stroke="#A9C2FF" stroke-width="3.4455" stroke-miterlimit="10" stroke-linecap="round" stroke-linejoin="round"/>
<path d="M187.141 178.322H203.266" stroke="#A9C2FF" stroke-width="3.4455" stroke-miterlimit="10" stroke-linecap="round" stroke-linejoin="round"/>
<path d="M184.936 185.488H201.061" stroke="#A9C2FF" stroke-width="3.4455" stroke-miterlimit="10" stroke-linecap="round" stroke-linejoin="round"/>
<path d="M250.814 170.052H269.971" stroke="#A9C2FF" stroke-width="3.4455" stroke-miterlimit="10" stroke-linecap="round" stroke-linejoin="round"/>
<path d="M260.201 206.498H231.594C231.45 206.498 231.345 206.362 231.381 206.222L232.661 201.303C232.687 201.206 232.775 201.138 232.875 201.138H261.482C261.626 201.138 261.731 201.274 261.695 201.414L260.415 206.333C260.389 206.43 260.302 206.498 260.201 206.498Z" stroke="#84AEE5" stroke-width="1.1485" stroke-miterlimit="10"/>
<path d="M224.644 206.498H196.037C195.893 206.498 195.787 206.362 195.823 206.222L197.104 201.303C197.129 201.206 197.217 201.138 197.317 201.138H225.924C226.068 201.138 226.173 201.274 226.137 201.414L224.857 206.333C224.831 206.43 224.744 206.498 224.644 206.498Z" stroke="#84AEE5" stroke-width="1.1485" stroke-miterlimit="10"/>
<path d="M310.481 199.367C309.015 197.413 303.065 195.993 301.421 194.04C300.582 193.042 300.582 191.188 300.782 189.612C301.367 189.239 301.853 188.865 302.143 188.517C302.637 187.795 303.194 186.787 303.751 185.68C303.92 185.845 304.145 185.974 304.436 185.965C305.217 185.941 308.19 181.894 307.423 180.957C306.985 180.42 306.277 180.886 305.751 181.382C306.538 179.58 307.091 178.198 307.091 178.198H307.061C307.136 177.971 307.205 177.743 307.263 177.511C308.442 172.78 305.564 168.944 300.832 168.944C296.101 168.944 291.308 172.78 290.129 177.511C290.071 177.743 290.026 177.972 289.987 178.198H289.957C289.957 178.198 289.822 179.58 289.71 181.382C289.431 180.886 288.955 180.42 288.25 180.957C287.015 181.895 287.97 185.942 288.74 185.965C289.027 185.974 289.316 185.845 289.567 185.68C289.573 186.787 289.627 187.795 289.761 188.517C289.903 188.942 290.318 189.407 290.857 189.861C290.268 191.38 289.372 193.095 288.104 194.04C285.487 195.993 278.829 197.414 276.389 199.367C274.195 201.123 272.236 206.254 271.865 207.268H311.064C311.199 206.253 311.8 201.123 310.481 199.367Z" fill="#8DBCF8"/>
<g opacity="0.46">
<path d="M305.816 292.437H151.347C149.723 292.437 148.537 290.903 148.946 289.332L163.367 233.928C163.651 232.835 164.638 232.072 165.767 232.072H320.237C321.861 232.072 323.047 233.606 322.638 235.177L308.218 290.581C307.933 291.675 306.946 292.437 305.816 292.437Z" fill="#BFD9FF"/>
<path d="M172.532 243.924H226.282" stroke="#A9C2FF" stroke-width="3.4455" stroke-miterlimit="10" stroke-linecap="round" stroke-linejoin="round"/>
<path d="M168.397 268.732H222.147" stroke="#A9C2FF" stroke-width="3.4455" stroke-miterlimit="10" stroke-linecap="round" stroke-linejoin="round"/>
<path d="M191 259.36H244.75" stroke="#A9C2FF" stroke-width="3.4455" stroke-miterlimit="10" stroke-linecap="round" stroke-linejoin="round"/>
<path d="M171.153 252.194H187.279" stroke="#A9C2FF" stroke-width="3.4455" stroke-miterlimit="10" stroke-linecap="round" stroke-linejoin="round"/>
<path d="M168.949 259.36H185.074" stroke="#A9C2FF" stroke-width="3.4455" stroke-miterlimit="10" stroke-linecap="round" stroke-linejoin="round"/>
<path d="M234.827 243.924H253.984" stroke="#A9C2FF" stroke-width="3.4455" stroke-miterlimit="10" stroke-linecap="round" stroke-linejoin="round"/>
<path d="M244.214 280.371H215.607C215.463 280.371 215.358 280.235 215.394 280.095L216.674 275.176C216.699 275.079 216.787 275.011 216.887 275.011H245.494C245.638 275.011 245.743 275.147 245.707 275.287L244.427 280.206C244.402 280.303 244.315 280.371 244.214 280.371Z" stroke="#84AEE5" stroke-width="1.1485" stroke-miterlimit="10"/>
<path d="M208.657 280.371H180.05C179.906 280.371 179.801 280.235 179.837 280.095L181.117 275.176C181.142 275.079 181.23 275.011 181.33 275.011H209.937C210.081 275.011 210.186 275.147 210.15 275.287L208.87 280.206C208.844 280.303 208.757 280.371 208.657 280.371Z" stroke="#84AEE5" stroke-width="1.1485" stroke-miterlimit="10"/>
<path d="M294.494 273.239C293.028 271.285 287.078 269.865 285.435 267.912C284.595 266.914 284.595 265.06 284.795 263.484C285.381 263.111 285.867 262.737 286.156 262.389C286.65 261.667 287.207 260.659 287.765 259.552C287.933 259.717 288.158 259.846 288.449 259.837C289.23 259.813 292.203 255.766 291.437 254.829C290.999 254.292 290.291 254.758 289.765 255.254C290.552 253.452 291.105 252.071 291.105 252.071H291.075C291.15 251.843 291.218 251.614 291.277 251.383C292.456 246.651 289.578 242.816 284.846 242.816C280.115 242.816 275.322 246.651 274.143 251.383C274.085 251.615 274.04 251.844 274.001 252.071H273.971C273.971 252.071 273.835 253.452 273.724 255.254C273.445 254.758 272.969 254.292 272.264 254.829C271.029 255.767 271.984 259.814 272.754 259.837C273.041 259.846 273.33 259.717 273.581 259.552C273.587 260.659 273.641 261.667 273.775 262.389C273.917 262.814 274.332 263.279 274.871 263.733C274.282 265.252 273.385 266.967 272.118 267.912C269.501 269.865 262.843 271.285 260.403 273.239C258.209 274.995 256.25 280.126 255.879 281.14H295.078C295.212 280.126 295.812 274.995 294.494 273.239Z" fill="#8DBCF8"/>
</g>
<path d="M274.933 292.713H302.497" stroke="#7094D8" stroke-width="1.1485" stroke-miterlimit="10"/>
<path d="M181.215 218.841H246.817" stroke="#7094D8" stroke-width="1.1485" stroke-miterlimit="10"/>
<path d="M261.84 218.841H277.827" stroke="#7094D8" stroke-width="1.1485" stroke-miterlimit="10"/>
<path d="M330.888 158.476H336.429C338.059 158.476 339.224 160.052 338.744 161.61L336.401 169.226" stroke="#7094D8" stroke-width="1.1485" stroke-miterlimit="10"/>
<path d="M155.383 61.0573H152.556C151.847 61.0573 151.415 60.482 151.592 59.7721L152.297 56.9454C152.474 56.2354 153.192 55.6602 153.902 55.6602H156.729C157.439 55.6602 157.87 56.2354 157.694 56.9454L156.989 59.7721C156.812 60.482 156.093 61.0573 155.383 61.0573Z" fill="#BFD9FF"/>
<path d="M153.317 69.3451H150.49C149.78 69.3451 149.349 68.7698 149.525 68.0599L150.23 65.2332C150.407 64.5233 151.126 63.948 151.836 63.948H154.662C155.372 63.948 155.804 64.5233 155.627 65.2332L154.922 68.0599C154.745 68.7698 154.027 69.3451 153.317 69.3451Z" fill="#EDF4FF"/>
<path d="M162.312 69.3451H159.485C158.775 69.3451 158.344 68.7698 158.52 68.0599L159.225 65.2332C159.402 64.5233 160.121 63.948 160.831 63.948H163.657C164.367 63.948 164.799 64.5233 164.622 65.2332L163.917 68.0599C163.74 68.7698 163.022 69.3451 162.312 69.3451Z" fill="#BFD9FF"/>
<path d="M171.306 69.3451H168.479C167.769 69.3451 167.338 68.7698 167.514 68.0599L168.219 65.2332C168.396 64.5233 169.115 63.948 169.825 63.948H172.652C173.362 63.948 173.793 64.5233 173.616 65.2332L172.912 68.0599C172.734 68.7698 172.016 69.3451 171.306 69.3451Z" fill="#EDF4FF"/>
<path d="M151.203 77.8261H148.376C147.666 77.8261 147.235 77.2508 147.411 76.5409L148.116 73.7142C148.293 73.0042 149.012 72.429 149.722 72.429H152.549C153.258 72.429 153.69 73.0042 153.513 73.7142L152.808 76.5409C152.631 77.2508 151.912 77.8261 151.203 77.8261Z" fill="#EDF4FF"/>
<path d="M148.944 86.8844H146.117C145.408 86.8844 144.976 86.3091 145.153 85.5992L145.858 82.7725C146.035 82.0626 146.753 81.4873 147.463 81.4873H150.29C151 81.4873 151.431 82.0626 151.255 82.7725L150.55 85.5992C150.373 86.3091 149.653 86.8844 148.944 86.8844Z" fill="#EDF4FF"/>
<path d="M160.197 77.8261H157.37C156.66 77.8261 156.228 77.2508 156.406 76.5409L157.11 73.7142C157.288 73.0042 158.006 72.429 158.716 72.429H161.543C162.253 72.429 162.684 73.0042 162.508 73.7142L161.803 76.5409C161.626 77.2508 160.907 77.8261 160.197 77.8261Z" fill="#EDF4FF"/>
<path d="M156.257 93.6308H153.43C152.72 93.6308 152.289 93.0555 152.465 92.3456L153.17 89.5188C153.347 88.8089 154.066 88.2336 154.775 88.2336H157.602C158.312 88.2336 158.743 88.8089 158.567 89.5188L157.862 92.3456C157.685 93.0555 156.966 93.6308 156.257 93.6308Z" fill="#BFD9FF"/>
<path d="M200.724 44.6011V44.5996C200.709 44.5989 200.696 44.5982 200.681 44.5975C200.638 44.5946 200.596 44.5888 200.552 44.5867L200.552 44.5903C200.261 44.5723 199.967 44.5586 199.667 44.5586C191.285 44.5586 182.802 51.2784 180.569 59.6239L180.47 60.0228H180.465C180.455 60.0645 180.448 60.1056 180.438 60.1473L180.374 60.4029H180.383C178.544 68.8615 183.971 75.5942 192.661 75.2428C200.584 74.9217 208.575 68.598 210.953 60.76C213.533 52.259 208.838 45.1684 200.724 44.6011ZM206.505 60.472C204.832 66.0441 199.12 70.5427 193.499 70.7212C187.456 70.9128 183.685 66.2227 184.931 60.3244L185.106 59.6239H185.099C186.707 53.7796 192.658 49.0881 198.538 49.0881C198.842 49.0881 199.139 49.104 199.431 49.1292C205.048 49.6036 208.282 54.5479 206.505 60.472Z" fill="#EBEDFC"/>
<path d="M199.898 47.2126C199.638 48.2544 200.125 49.1587 201.073 49.41C205.656 50.6225 208.101 55.1527 206.504 60.4728C204.831 66.0449 199.12 70.5427 193.499 70.7213C187.986 70.8962 184.362 67.0111 184.712 61.8516C184.785 60.7867 184.029 60.0235 182.947 60.0235C181.544 60.0235 180.146 61.2893 180.053 62.6695C179.554 70.0315 184.762 75.5633 192.66 75.2436C200.584 74.9225 208.575 68.5987 210.953 60.7608C213.248 53.1943 209.783 46.7424 203.271 45.0151C201.926 44.6573 200.267 45.7344 199.898 47.2126Z" fill="#A5C5FF"/>
<path d="M238.901 43.0544L238.902 43.053C238.888 43.0523 238.874 43.0516 238.861 43.0508C238.808 43.0472 238.754 43.0451 238.701 43.0415C238.419 43.0242 238.136 43.012 237.845 43.012C229.368 43.012 220.782 49.8836 218.669 58.3609C216.556 66.8375 221.714 73.7099 230.191 73.7099C230.481 73.7099 230.77 73.6976 231.059 73.6804C231.114 73.6775 231.168 73.6746 231.223 73.6717C231.238 73.671 231.253 73.6703 231.268 73.6688V73.6674C239.339 73.1224 247.252 66.5509 249.329 58.4948C249.341 58.4502 249.355 58.4063 249.366 58.3616C251.391 50.2429 246.743 43.6024 238.901 43.0544ZM232.083 69.1501C232.068 69.1508 232.055 69.1523 232.04 69.153C231.862 69.1645 231.683 69.1717 231.504 69.1753C231.443 69.176 231.381 69.1796 231.32 69.1796C225.345 69.1796 221.709 64.3355 223.199 58.3602C224.688 52.3849 230.74 47.5408 236.715 47.5408C236.776 47.5408 236.836 47.5444 236.897 47.5451C237.074 47.548 237.25 47.5559 237.424 47.5674C237.439 47.5681 237.453 47.5696 237.468 47.571C242.991 47.962 246.262 52.6412 244.836 58.3602C244.824 58.4048 244.811 58.4488 244.799 58.4934C243.32 64.1548 237.757 68.7656 232.083 69.1501Z" fill="white"/>
<path d="M244.141 60.3841C242.238 64.7229 237.974 68.1443 233.432 68.9809C232.298 69.1897 231.271 70.1099 230.996 71.2115C230.64 72.6378 231.677 73.7013 233.145 73.4349C239.618 72.2591 245.702 67.3782 248.398 61.1898C249.008 59.7909 248.268 58.4941 246.845 58.4941C245.74 58.4941 244.618 59.2969 244.141 60.3841Z" fill="#BFD9FF"/>
<path d="M198.182 97.0682H169.575C169.431 97.0682 169.325 96.9321 169.362 96.7924L170.642 91.8734C170.667 91.7762 170.755 91.7085 170.855 91.7085H199.462C199.606 91.7085 199.711 91.8446 199.675 91.9843L198.395 96.9033C198.37 97.0005 198.282 97.0682 198.182 97.0682Z" fill="#EDF4FF"/>
<path d="M330.878 119.899C336.832 114.641 338.335 106.615 334.235 101.971C330.135 97.3279 321.984 97.8259 316.03 103.084C310.075 108.341 308.572 116.368 312.672 121.011C316.773 125.655 324.923 125.157 330.878 119.899Z" fill="#73A5FF"/>
<path d="M342.22 125.123C341.741 127.042 339.797 128.599 337.877 128.599C335.958 128.599 334.789 127.043 335.268 125.123C335.747 123.203 337.691 121.647 339.611 121.647C341.531 121.647 342.699 123.203 342.22 125.123Z" fill="#73A5FF"/>
<path d="M320.171 117.933C319.771 117.933 319.41 117.78 319.181 117.476L315.898 113.103C315.441 112.493 315.687 111.505 316.449 110.895C317.212 110.285 318.2 110.285 318.658 110.895L321.111 114.163L329.877 107.147C330.638 106.537 331.627 106.537 332.085 107.147C332.543 107.757 332.296 108.746 331.534 109.356L321.389 117.476C321.008 117.78 320.571 117.933 320.171 117.933Z" fill="white"/>
<path d="M404.071 332.958C433.985 332.958 458.235 330.921 458.235 328.409C458.235 325.897 433.985 323.861 404.071 323.861C374.158 323.861 349.908 325.897 349.908 328.409C349.908 330.921 374.158 332.958 404.071 332.958Z" fill="#BFD9FF"/>
<path d="M406.138 86.2573C406.138 86.2573 404.76 89.0135 403.933 95.078C403.106 101.142 405.311 136.149 405.311 136.149L429.016 133.669L418.266 87.9119L406.138 86.2573Z" fill="#024470"/>
<path d="M392.081 234.139L383.812 275.072L399.937 275.485C399.937 275.485 404.071 239.1 402.417 239.1C400.764 239.1 392.081 234.139 392.081 234.139Z" fill="#45242C"/>
<path d="M429.569 322.482C429.569 322.482 423.505 328.822 421.024 330.2C421.575 331.302 430.395 331.302 433.703 329.648C437.011 327.994 439.492 324.135 439.492 324.135L439.217 328.27H440.87C440.87 328.27 442.524 322.481 442.524 321.103C442.524 319.725 440.87 317.796 440.87 317.796L429.569 322.482Z" fill="#713336"/>
<path d="M427.087 240.893L433.151 315.316L440.318 314.765C440.318 314.765 448.587 260.187 445.28 241.443C441.972 222.7 427.087 240.893 427.087 240.893Z" fill="#FF8D68"/>
<path d="M433.151 315.316C433.151 315.316 430.946 321.105 427.914 323.861C424.882 326.617 432.6 326.617 435.907 323.861C439.215 321.105 439.491 319.451 440.593 318.899C441.695 318.348 440.317 314.765 440.317 314.765L433.151 315.316Z" fill="#FF8D68"/>
<path d="M379.796 321.233C379.796 321.233 372.75 326.46 370.072 327.401C370.43 328.581 379.124 330.067 382.663 328.995C386.202 327.922 389.297 324.537 389.297 324.537L388.329 328.566L389.959 328.844C389.959 328.844 392.565 323.418 392.797 322.059C393.03 320.7 391.725 318.52 391.725 318.52L379.796 321.233Z" fill="#713336"/>
<path d="M391.103 240.392L384.536 314.773L391.693 315.437C391.693 315.437 409.043 263.035 408.943 244.002C408.841 224.969 391.103 240.392 391.103 240.392Z" fill="#FF8D68"/>
<path d="M384.536 314.773C384.536 314.773 381.387 320.107 377.934 322.313C374.481 324.519 382.088 325.82 385.813 323.66C389.538 321.501 390.088 319.917 391.268 319.56C392.447 319.202 391.694 315.438 391.694 315.438L384.536 314.773Z" fill="#FF8D68"/>
<path d="M365.707 122.144L351.457 119.337C351.457 119.337 351.241 121.28 352.536 121.712C353.832 122.144 353.832 122.144 353.832 122.144C353.832 122.144 357.07 129.917 358.582 130.781C360.093 131.644 369.164 135.387 369.164 135.387L371.536 126.247L365.707 122.144Z" fill="#FF7759"/>
<path d="M375.956 133.668C375.956 133.668 375.818 132.703 373.912 128.837C371.798 124.551 371.321 122.792 371.321 122.792C371.321 122.792 364.628 120.201 363.549 118.905C362.47 117.61 361.822 117.394 361.822 117.394C361.822 117.394 360.526 119.768 362.47 121.496C364.413 123.223 366.14 124.518 366.14 124.518C366.14 124.518 365.924 129.484 366.572 131.859C367.22 134.235 369.166 135.387 369.166 135.387L375.956 133.668Z" fill="#FF8D68"/>
<path d="M398.145 141.661C398.145 141.661 388.498 157.097 388.222 155.719C387.946 154.341 375.818 133.116 375.818 133.116L369.165 135.387C369.165 135.387 379.125 166.469 385.466 171.431C385.466 171.431 386.017 172.257 387.947 171.982C389.876 171.706 404.761 156.27 404.761 156.27L398.145 141.661Z" fill="#FF8D68"/>
<path d="M407.172 123.331C407.172 123.331 402.004 125.398 399.523 128.981C397.043 132.565 389.876 148.827 389.876 148.827C389.876 148.827 393.735 155.719 402.556 158.199L414.684 135.872L407.172 123.331Z" fill="#E86D5E"/>
<path d="M400.764 176.255C400.764 176.255 401.177 182.87 401.177 185.351C401.177 185.351 391.254 233.312 390.84 244.476C390.427 255.64 398.696 278.38 398.696 278.38C398.696 278.38 434.254 277.553 445.831 275.072L447.072 251.091C447.072 251.091 448.726 209.331 447.072 197.341C445.418 185.351 438.389 179.149 438.389 179.149L436.322 173.36L400.764 176.255Z" fill="#713336"/>
<path d="M431.153 120.437C431.153 120.437 440.456 124.778 443.35 129.326C446.244 133.874 454.927 158.475 454.927 158.475C454.927 158.475 445.211 161.989 436.735 161.989C436.735 161.989 437.561 169.845 438.389 172.325C439.215 174.806 436.321 175.84 436.321 175.84C436.321 175.84 416.062 181.422 400.97 178.114C400.97 178.114 399.11 177.7 399.11 176.873C399.11 176.046 399.316 173.979 399.316 173.979C399.316 173.979 397.869 159.921 397.456 157.44C397.043 154.959 392.494 148.206 392.908 145.518C393.321 142.831 400.35 130.358 400.35 130.358C400.35 130.358 405.105 124.777 407.172 123.329C409.239 121.882 414.408 121.882 414.408 121.882L431.153 120.437Z" fill="#E86D5E"/>
<path d="M413.523 112.998C413.53 113.322 414.71 120.338 410.824 125.304C406.938 130.378 422.267 130.162 425.83 124.98C429.068 120.338 428.744 119.582 428.744 119.582C428.744 119.582 426.154 111.162 426.909 105.656C426.693 100.691 413.307 103.713 413.523 112.998Z" fill="#FF8D68"/>
<path d="M413.425 83.7092C413.425 83.7092 408.956 84.8533 406.423 91.7156C403.892 98.578 405.58 113.161 407.267 114.877C408.955 116.592 414.082 115.936 421.192 113.59C428.704 111.11 431.243 103.3 432.585 98.1496C435.156 88.2841 426.578 78.1336 413.425 83.7092Z" fill="#FF8D68"/>
<path d="M404.76 91.4947C404.76 91.4947 408.894 101.418 424.606 101.969L428.259 119.507C428.259 119.507 434.948 122.72 437.562 124.158C437.562 124.158 440.594 92.3212 433.428 84.6035C426.261 76.8859 413.582 78.8147 408.62 83.2255C403.659 87.6362 404.76 91.4947 404.76 91.4947Z" fill="#024470"/>
<path d="M431.153 120.437L427.639 117.129C427.639 117.129 424.538 126.018 413.581 126.639C413.581 126.639 412.134 124.365 412.961 121.057L411.101 122.504C411.101 122.504 407.173 128.086 407.586 129.74C407.999 131.394 413.237 128.499 413.237 128.499C413.237 128.499 419.439 132.22 421.919 132.427C424.4 132.634 430.74 121.057 431.153 120.437Z" fill="white"/>
<path d="M424.851 101.713C424.851 101.713 426.509 98.979 428.166 99.9863C429.823 100.994 427.111 107.18 424.851 107.324C422.59 107.468 423.796 103.295 424.851 101.713Z" fill="#FF7759"/>
<path d="M428.741 138.354L435.081 160.956" stroke="#BB524F" stroke-width="1.1485" stroke-miterlimit="10"/>
<path d="M424.814 139.663C424.814 139.663 426.261 144.004 431.016 146.898" stroke="#BB524F" stroke-width="1.1485" stroke-miterlimit="10"/>
<path d="M432.049 134.288C432.049 134.288 432.876 128.499 439.492 128.086" stroke="#BB524F" stroke-width="1.1485" stroke-miterlimit="10"/>
<path d="M399.592 131.807C399.592 131.807 392.838 142.901 392.908 145.52C392.977 148.138 397.318 155.581 397.318 155.581L402.692 169.639" stroke="#BB524F" stroke-width="1.1485" stroke-miterlimit="10"/>
<path d="M422.953 177.908L430.188 169.639" stroke="#BB524F" stroke-width="1.1485" stroke-miterlimit="10"/>
<path d="M362.311 124.571L353.832 122.144C353.832 122.144 354.593 124.02 355.144 124.571C355.696 125.123 361.622 127.19 361.622 127.19" stroke="#E66657" stroke-width="1.026" stroke-miterlimit="10"/>
<path d="M355.145 124.571C355.145 124.571 355.972 127.052 356.386 127.466C356.799 127.879 362.036 129.395 362.036 129.395" stroke="#E66657" stroke-width="1.026" stroke-miterlimit="10"/>
<path d="M363.552 122.504L366.139 124.519L368.1 124.02" stroke="#E66657" stroke-width="1.026" stroke-miterlimit="10"/>
<path d="M414.408 115.338C414.408 115.338 419.646 114.235 422.402 109.274" stroke="#E66657" stroke-width="1.026" stroke-miterlimit="10"/>
<path d="M409.86 103.209L408.895 108.447L410.687 108.86" stroke="#E66657" stroke-width="1.026" stroke-miterlimit="10"/>
<path d="M409.584 111.203C409.584 111.203 412.203 111.754 414.959 110.238" stroke="#E66657" stroke-width="1.026" stroke-miterlimit="10"/>
<path d="M419.37 105.897C419.37 107.305 418.228 108.446 416.82 108.446C415.412 108.446 414.271 107.305 414.271 105.897C414.271 104.489 415.413 103.347 416.82 103.347C418.228 103.347 419.37 104.489 419.37 105.897Z" fill="#FA6157"/>
<path d="M414.408 102.451C414.408 102.794 414.13 103.071 413.788 103.071C413.446 103.071 413.168 102.793 413.168 102.451C413.168 102.108 413.446 101.831 413.788 101.831C414.13 101.831 414.408 102.109 414.408 102.451Z" fill="#024470"/>
<path d="M407.724 102.451C407.724 102.794 407.446 103.071 407.104 103.071C406.762 103.071 406.484 102.793 406.484 102.451C406.484 102.108 406.762 101.831 407.104 101.831C407.446 101.831 407.724 102.109 407.724 102.451Z" fill="#024470"/>
<path d="M403.313 183.903C403.313 183.903 414.683 187.417 425.434 182.869" stroke="#562525" stroke-width="1.1485" stroke-miterlimit="10"/>
<path d="M406.69 187.969C406.69 187.969 412.479 189.898 421.85 186.315" stroke="#562525" stroke-width="1.1485" stroke-miterlimit="10"/>
<path d="M404.198 185.005L382.356 197.616L399.102 226.619L420.943 214.008L404.198 185.005Z" fill="white"/>
<path d="M424.882 196.238C424.882 196.238 421.437 200.028 420.403 200.856C419.369 201.682 412.34 202.303 412.34 202.303C412.34 202.303 409.239 207.471 408.413 207.264C407.586 207.058 407.793 206.438 407.793 206.438C407.793 206.438 407.586 197.135 408.206 196.101C408.826 195.067 418.956 192.174 418.956 192.174L420.197 190.727L424.882 196.238Z" fill="#FF8D68"/>
<path d="M451.895 159.44C452.171 160.268 454.375 166.745 455.478 170.053C456.581 173.36 431.773 190.726 427.914 193.758L424.882 196.238L420.196 190.725L441.972 168.949L438.802 161.783L451.895 159.44Z" fill="#FF8D68"/>
<path d="M408.413 207.264L409.722 201.475" stroke="#E66657" stroke-width="1.026" stroke-miterlimit="10"/>
<path d="M407.655 202.027L409.171 198.719" stroke="#E66657" stroke-width="1.026" stroke-miterlimit="10"/>
<path d="M408.206 196.101L407.655 207.264H409.446L412.34 202.303" stroke="#E66657" stroke-width="1.026" stroke-miterlimit="10"/>
<path d="M127.326 332.957C157.24 332.957 181.49 330.921 181.49 328.409C181.49 325.897 157.24 323.861 127.326 323.861C97.4126 323.861 73.1628 325.897 73.1628 328.409C73.1628 330.921 97.4126 332.957 127.326 332.957Z" fill="#BFD9FF"/>
<path d="M105.521 313.777C105.521 313.777 106.67 311.315 110.938 311.971C115.206 312.628 115.699 313.449 116.191 315.583C116.684 317.717 118.161 320.015 119.146 320.508C120.131 321 123.743 323.463 126.698 323.955C129.653 324.448 129.981 326.253 129.324 327.074C128.668 327.895 117.505 328.552 115.043 328.223C115.043 328.223 106.671 328.059 104.702 327.402C102.731 326.746 105.357 314.598 105.521 313.777Z" fill="#2D2737"/>
<path d="M100.781 256.075C100.781 256.075 99.5321 249.277 106.711 246.995C113.89 244.713 115.249 248.031 117.423 254.232C119.596 260.432 115.555 313.401 115.555 313.401C115.555 313.401 107.288 314.812 105.167 313.561C105.167 313.561 98.8697 279.079 99.3081 269.617C99.7466 260.153 100.781 256.075 100.781 256.075Z" fill="#3D4776"/>
<path d="M104.29 311.479C104.29 311.479 113.647 310.658 116.602 310.166L116.438 314.434C116.438 314.434 109.05 315.747 104.454 315.091L104.29 311.479Z" fill="#51598D"/>
<path d="M101.992 123.357C101.992 123.357 96.0826 123.686 92.471 137.146C88.8595 150.607 86.5613 167.023 87.8746 171.291C89.1878 175.559 103.305 187.049 108.558 187.049C113.811 187.049 114.139 183.11 113.154 179.826C112.17 176.543 101.992 167.679 101.992 167.679C101.992 167.679 110.2 141.414 109.872 134.52C109.543 127.626 105.603 123.357 101.992 123.357Z" fill="#7E78C7"/>
<path d="M175.989 119.342L175.009 119.442L177.206 115.093C177.206 115.093 182.789 114.741 183.685 117.099L181.124 122.779L175.989 119.342Z" fill="#FF8D68"/>
<path d="M179.127 106.984C179.127 106.984 178.909 102.54 180.491 101.908C182.072 101.277 183.843 102.506 183.843 102.506C183.843 102.506 186.403 102.246 187.219 103.338C188.036 104.43 187.97 106.083 187.97 106.083C187.97 106.083 189.413 106.406 189.788 107.778C190.164 109.151 189.493 111.804 189.493 111.804C189.493 111.804 187.821 113.856 185.889 113.347C183.956 112.839 179.127 106.984 179.127 106.984Z" fill="#FF7759"/>
<path d="M176.202 110.573C176.202 110.573 175.609 104.756 176.236 103.987C176.863 103.218 183.272 94.353 183.272 94.353C183.272 94.353 184.601 95.8629 183.836 97.5865C183.072 99.3102 180.053 104.539 180.053 104.539L180.038 109.007C180.038 109.007 178.064 110.384 176.202 110.573Z" fill="#FF7759"/>
<path d="M176.677 115.227C176.677 115.227 175.145 105.885 176.19 104.603C177.235 103.321 182.357 104.069 183.335 104.439C184.313 104.81 187.019 108.295 187.394 109.667C187.77 111.04 185.219 116.001 183.685 117.099C182.151 118.195 177.564 117.017 176.677 115.227Z" fill="#FF8D68"/>
<path d="M173.071 121.387L175.041 117.776C175.041 117.776 179.637 116.955 181.935 120.567C182.592 121.88 182.264 121.88 182.264 121.88L180.786 124.835L173.071 121.387Z" fill="#DEE0E8"/>
<path d="M126.306 81.866C126.306 81.866 131.163 83.1087 133.914 90.5665C136.665 98.0242 134.832 113.871 132.997 115.736C131.162 117.6 125.591 116.888 117.865 114.337C109.701 111.643 106.943 103.156 105.484 97.5577C102.691 86.8376 112.013 75.8065 126.306 81.866Z" fill="#FF8D68"/>
<path d="M108.886 123.029L112.826 108.912C112.826 108.912 120.706 106.614 125.63 111.867L127.272 114.165V123.358C127.272 123.358 119.064 124.999 108.886 123.029Z" fill="#FF8D68"/>
<path d="M97.8883 199.033C97.8883 199.033 94.9334 216.269 97.8883 235.968C100.843 255.666 106.753 257.636 112.169 257.636C117.587 257.636 119.064 241.877 120.049 234.983C121.034 228.088 124.974 204.45 117.587 199.032C110.2 193.616 101.828 193.123 97.8883 199.033Z" fill="#3D4776"/>
<path d="M118.572 222.179C118.572 222.179 112.662 206.42 123.004 199.526C133.346 192.631 141.225 193.616 143.688 204.943C146.15 216.27 146.642 255.174 143.195 263.054C139.748 270.933 127.436 258.622 118.572 222.179Z" fill="#3D4776"/>
<path d="M135.783 82.54C135.783 82.54 138.114 85.5697 136.716 89.0653C135.318 92.5609 130.19 93.9592 130.19 93.9592C130.19 93.9592 131.822 96.2898 130.19 99.5521L129.025 101.416C129.025 101.416 130.657 105.145 130.19 106.077C129.725 107.01 128.093 106.777 128.093 106.777C128.093 106.777 126.229 101.649 125.529 102.115C124.83 102.581 122.966 104.912 122.966 107.009C122.966 109.107 123.665 110.738 123.199 112.136C122.733 113.535 115.509 113.535 112.479 113.069C109.449 112.603 104.789 103.281 103.623 99.0856C103.623 99.0856 101.992 93.2593 104.322 88.3655C104.322 88.3655 103.856 84.1708 107.818 79.976C111.78 75.7813 124.364 77.1796 126.462 78.8111C126.462 78.8111 126.228 76.4804 128.559 76.947C130.89 77.4128 134.385 79.5102 135.783 82.54Z" fill="#C53A45"/>
<path d="M128.792 103.747C128.792 103.747 128.093 100.718 125.529 102.116C122.966 103.514 125.995 110.739 128.093 110.273C130.19 109.806 129.258 104.912 128.792 103.747Z" fill="#FF7759"/>
<path d="M106.802 122.955C106.802 122.955 107.901 119.09 108.886 118.762C109.871 118.433 122.018 117.12 128.585 121.06C131.54 123.358 131.211 125 131.211 125C131.211 125 111.612 121.239 106.802 122.955Z" fill="#DEE0E8"/>
<path d="M104.29 122.044C104.29 122.044 124.645 120.731 139.091 126.969C145.657 130.252 160.677 145.108 160.677 145.108L172.496 120.485C172.496 120.485 179.145 118.104 181.771 124.343C181.771 124.343 174.302 153.398 168.065 162.59C164.125 165.874 145.329 155.203 145.329 155.203C145.329 155.203 148.284 193.287 147.299 210.359C145.986 213.643 120.378 215.284 115.781 214.956C111.185 214.628 95.0976 209.375 94.7693 208.39C94.4409 207.405 97.0675 168.008 96.4109 163.411C95.7542 158.815 93.7843 136.161 94.4409 132.878C95.0976 129.596 98.0525 123.358 104.29 122.044Z" fill="#7E78C7"/>
<path d="M125.959 314.762C125.959 314.762 127.108 312.3 131.376 312.956C135.644 313.613 136.137 314.434 136.629 316.568C137.122 318.702 138.599 321 139.584 321.493C140.569 321.985 144.181 324.448 147.136 324.94C150.09 325.432 150.419 327.238 149.762 328.059C149.106 328.88 137.943 329.536 135.481 329.208C135.481 329.208 127.109 329.044 125.139 328.387C123.168 327.73 125.794 315.583 125.959 314.762Z" fill="#3E3343"/>
<path d="M127.928 257.144C127.928 257.144 127.436 250.249 134.823 248.772C142.21 247.295 143.195 250.742 144.672 257.144C146.15 263.546 136.3 315.747 136.3 315.747C136.3 315.747 127.928 316.24 125.959 314.762C125.959 314.762 123.497 279.797 124.974 270.44C126.451 261.083 127.928 257.144 127.928 257.144Z" fill="#3D4776"/>
<path d="M125.302 315.583C125.302 315.583 131.705 317.389 137.121 316.404L137.614 312.628L125.138 311.807L125.302 315.583Z" fill="#51598D"/>
<path d="M116.602 218.485C116.602 218.485 123.497 240.646 128.667 251.481" stroke="#2A2E59" stroke-width="1.026" stroke-miterlimit="10"/>
<path d="M130.637 255.913C130.637 255.913 134.823 253.451 139.009 255.913" stroke="#2A2E59" stroke-width="1.026" stroke-miterlimit="10"/>
<path d="M129.898 258.622C129.898 258.622 133.345 256.652 139.255 260.838" stroke="#2A2E59" stroke-width="1.026" stroke-miterlimit="10"/>
<path d="M104.044 252.958C104.044 252.958 106.752 250.496 112.908 253.205" stroke="#2A2E59" stroke-width="1.026" stroke-miterlimit="10"/>
<path d="M106.014 255.421C106.014 255.421 109.953 253.451 113.647 256.406" stroke="#2A2E59" stroke-width="1.026" stroke-miterlimit="10"/>
<path d="M115.124 259.36L113.647 309.591" stroke="#2A2E59" stroke-width="1.026" stroke-miterlimit="10"/>
<path d="M135.479 217.254C135.479 217.254 141.061 220.537 143.359 215.284" stroke="#2A2E59" stroke-width="1.026" stroke-miterlimit="10"/>
<path d="M141.061 217.911C141.061 217.911 143.688 238.266 143.031 251.727" stroke="#2A2E59" stroke-width="1.026" stroke-miterlimit="10"/>
<path d="M94.441 141.415L97.0675 169.649" stroke="#524B81" stroke-width="1.026" stroke-miterlimit="10"/>
<path d="M139.501 151.264C139.501 151.264 158.954 165.299 168.065 162.591" stroke="#524B81" stroke-width="1.026" stroke-miterlimit="10"/>
<path d="M162.647 147.817C162.647 147.817 166.587 150.033 166.341 155.204" stroke="#524B81" stroke-width="1.026" stroke-miterlimit="10"/>
<path d="M161.662 145.847C161.662 145.847 165.848 144.615 168.311 148.802" stroke="#524B81" stroke-width="1.026" stroke-miterlimit="10"/>
<path d="M138.763 128.857C138.763 128.857 128.421 134.274 135.315 146.832" stroke="#524B81" stroke-width="1.026" stroke-miterlimit="10"/>
<path d="M124.112 112.483C124.112 112.483 125.836 116.915 131.623 116.176" stroke="#E66657" stroke-width="1.026" stroke-miterlimit="10"/>
<path d="M179.842 103.372L181.771 101.648C181.771 101.648 183.125 101.641 183.843 102.506" stroke="#E66657" stroke-width="1.026" stroke-miterlimit="10"/>
<path d="M182.141 103.659C182.141 103.536 184.89 102.058 184.89 102.058C184.89 102.058 187.394 102.674 187.763 103.987C188.132 105.301 187.845 105.998 187.845 105.998" stroke="#E66657" stroke-width="1.026" stroke-miterlimit="10"/>
<path d="M185.383 106.039C185.506 105.998 188.871 106.204 188.871 106.204C188.871 106.204 190.102 107.024 190.061 108.625C190.02 110.225 189.493 111.804 189.493 111.804C189.493 111.804 188.297 113.508 186.245 113.467" stroke="#E66657" stroke-width="1.026" stroke-miterlimit="10"/>
<path d="M187.312 109.487C187.312 109.487 187.722 110.143 187.188 111.333C186.655 112.524 186.009 115.64 183.685 117.098" stroke="#E66657" stroke-width="1.026" stroke-miterlimit="10"/>
<path d="M117.464 88.1055C112.662 85.7663 106.506 88.598 106.506 88.598C106.506 88.598 107.245 85.3969 110.692 84.2888" stroke="#A03A45" stroke-width="1.368" stroke-miterlimit="10"/>
<path d="M106.752 90.5679C106.752 90.5679 107.983 90.4448 109.584 92.9072" stroke="#A03A45" stroke-width="1.368" stroke-miterlimit="10"/>
<path d="M127.928 79.5281C127.928 79.5281 134.002 80.513 134.166 86.587" stroke="#A03A45" stroke-width="1.368" stroke-miterlimit="10"/>
</g>
<defs>
<clipPath id="clip0_2713_7130">
<rect width="540" height="360" fill="white"/>
</clipPath>
</defs>
</svg>
